<svg xmlns="http://www.w3.org/2000/svg" xmlns:xlink="http://www.w3.org/1999/xlink" width="434" height="434" viewBox="0 0 434 434">
  <defs>
    <clipPath id="clip-path">
      <rect id="Rectangle_262" data-name="Rectangle 262" width="434" height="434" rx="33" transform="translate(562 31)" fill="#334a52" stroke="#707070" stroke-width="1" opacity="0.26"/>
    </clipPath>
  </defs>
  <g id="Group_73" data-name="Group 73" transform="translate(-770 -174)">
    <g id="linegraphgroup" transform="translate(208 143)">
      <g id="Mask_Group_1" data-name="Mask Group 1" clip-path="url(#clip-path)">
        <path id="Path_723" data-name="Path 723" d="M8053.769,4013.812s67.849-31.887,102.622-54.895c16.83-11.136,18.317-35.435,47.958-54.915s44.64-21.48,58.17-21.509c26.222-.056,31.73,21.367,62.114,21.509s34.1-40.391,70.592-38.695,30.982,60.657,63.795,88.894,67.454,24.053,67.454,24.053v203.41H8053.769Z" transform="translate(-7511 -3684)" fill="#4a8b9d" stroke="#4a65cf" stroke-width="2"/>
        <path id="Path_724" data-name="Path 724" d="M8066.035,4190.043v-167.7s111.391-43.037,139.95-74.01,11.62-63.855,44.246-78.436,59.084,18.508,86.257,20.114,11.926-12.34,57.359-7.378,43.08,67.416,81.638,99.726,72.592,29.513,72.592,29.513l3.507,178.172Z" transform="translate(-7511 -3684)" fill="#152126" stroke="#55565e" stroke-width="2"/>
      </g>
      <g id="areagraph" transform="translate(247 -275)">
        <text id="_0_" data-name="0
" transform="translate(347 629)" fill="#fff" font-size="14" font-family="Roboto-Regular, Roboto"><tspan x="0" y="15">0</tspan></text>
        <text id="_20_" data-name="20

" transform="translate(423 629)" fill="#fff" font-size="14" font-family="Roboto-Regular, Roboto"><tspan x="0" y="15">20</tspan></text>
        <text id="_40_" data-name="40
" transform="translate(499 629)" fill="#fff" font-size="14" font-family="Roboto-Regular, Roboto"><tspan x="0" y="15">40</tspan></text>
        <text id="_60_" data-name="60
" transform="translate(575 629)" fill="#fff" font-size="14" font-family="Roboto-Regular, Roboto"><tspan x="0" y="15">60</tspan></text>
        <text id="_80_" data-name="80
" transform="translate(651 629)" fill="#fff" font-size="14" font-family="Roboto-Regular, Roboto"><tspan x="0" y="15">80</tspan></text>
        <line id="Line_10" data-name="Line 10" x2="369.535" y2="2.053" transform="translate(347.965 612.931)" fill="none" stroke="#707070" stroke-width="1"/>
        <line id="Line_11" data-name="Line 11" x2="369.535" y2="2.053" transform="translate(347.965 568.446)" fill="none" stroke="#707070" stroke-width="1"/>
        <line id="Line_12" data-name="Line 12" x2="369.535" y2="2.053" transform="translate(347.965 524.396)" fill="none" stroke="#707070" stroke-width="1"/>
        <line id="Line_13" data-name="Line 13" x2="369.535" y2="2.053" transform="translate(347.965 480.346)" fill="none" stroke="#707070" stroke-width="1"/>
        <line id="Line_14" data-name="Line 14" x2="369.535" y2="2.053" transform="translate(347.965 435.359)" fill="none" stroke="#707070" stroke-width="1"/>
        <line id="Line_15" data-name="Line 15" x2="369.535" y2="2.053" transform="translate(347.965 392.247)" fill="none" stroke="#707070" stroke-width="1"/>
        <text id="_80" data-name="80" transform="translate(347 594)" fill="#fff" font-size="14" font-family="Roboto-Regular, Roboto"><tspan x="0" y="15">80</tspan></text>
        <text id="_100" data-name="100" transform="translate(347 550)" fill="#fff" font-size="14" font-family="Roboto-Regular, Roboto"><tspan x="0" y="15">100</tspan></text>
        <text id="_120" data-name="120" transform="translate(348 506)" fill="#fff" font-size="14" font-family="Roboto-Regular, Roboto"><tspan x="0" y="15">120</tspan></text>
        <text id="_140" data-name="140" transform="translate(347 462)" fill="#fff" font-size="14" font-family="Roboto-Regular, Roboto"><tspan x="0" y="15">140</tspan></text>
        <text id="_160" data-name="160" transform="translate(347 416)" fill="#fff" font-size="14" font-family="Roboto-Regular, Roboto"><tspan x="0" y="15">160</tspan></text>
        <text id="_180" data-name="180" transform="translate(348 374)" fill="#fff" font-size="14" font-family="Roboto-Regular, Roboto"><tspan x="0" y="15">180</tspan></text>
      </g>
      <g id="Rectangle_260" data-name="Rectangle 260" transform="translate(599 433)" fill="#3b8092" stroke="#707070" stroke-width="1">
        <rect width="13" height="13" rx="3" stroke="none"/>
        <rect x="0.5" y="0.5" width="12" height="12" rx="2.5" fill="none"/>
      </g>
      <g id="Rectangle_261" data-name="Rectangle 261" transform="translate(776 433)" fill="#182124" stroke="#707070" stroke-width="1">
        <rect width="13" height="13" rx="3" stroke="none"/>
        <rect x="0.5" y="0.5" width="12" height="12" rx="2.5" fill="none"/>
      </g>
      <text id="Todays_HR_" data-name="Todays HR
" transform="translate(623 430)" fill="#fff" font-size="14" font-family="Roboto-Regular, Roboto"><tspan x="0" y="15">Todays HR</tspan></text>
      <text id="Yesterdays_HR_" data-name="Yesterdays HR
" transform="translate(800 430)" fill="#fff" font-size="14" font-family="Roboto-Regular, Roboto"><tspan x="0" y="15">Yesterdays HR</tspan></text>
    </g>
    <g id="linedaily" transform="translate(187.19 148)">
      <path id="sort-up-solid" d="M29.109,66.656H18.052c-.994,0-1.491-1.5-.79-2.382l5.528-6.914a.962.962,0,0,1,1.575,0l5.528,6.914C30.6,65.151,30.1,66.656,29.109,66.656Z" transform="translate(927.035 108) rotate(180)" fill="#d97719"/>
      <text id="_127_bpm" data-name="127 bpm" transform="translate(918 38)" fill="#fff" font-size="11" font-family="Roboto-Regular, Roboto"><tspan x="0" y="12">127 bpm</tspan></text>
      <rect id="Rectangle_263" data-name="Rectangle 263" width="8" height="21" rx="1" transform="translate(897 78)" fill="#61dbfb"/>
      <rect id="Rectangle_263-2" data-name="Rectangle 263" width="8" height="29" rx="1" transform="translate(907 70)" fill="#61dbfb"/>
      <rect id="Rectangle_263-3" data-name="Rectangle 263" width="8" height="24" rx="1" transform="translate(917 75)" fill="#61dbfb"/>
      <rect id="Rectangle_263-4" data-name="Rectangle 263" width="8" height="26" rx="1" transform="translate(927 73)" fill="#61dbfb"/>
      <rect id="Rectangle_263-5" data-name="Rectangle 263" width="8" height="34" rx="1" transform="translate(937 65)" fill="#61dbfb"/>
      <rect id="Rectangle_263-6" data-name="Rectangle 263" width="8" height="24" rx="1" transform="translate(947 75)" fill="#61dbfb"/>
      <rect id="Rectangle_263-7" data-name="Rectangle 263" width="8" height="28" rx="1" transform="translate(957 71)" fill="#d97719"/>
    </g>
  </g>
</svg>
