<svg xmlns="http://www.w3.org/2000/svg" xmlns:xlink="http://www.w3.org/1999/xlink" width="52.048" height="52.048" viewBox="0 0 52.048 52.048">
  <defs>
    <filter id="search-location-solid" x="0" y="0" width="52.048" height="52.048" filterUnits="userSpaceOnUse">
      <feOffset dy="1" input="SourceAlpha"/>
      <feGaussianBlur stdDeviation="3" result="blur"/>
      <feFlood flood-opacity="0.161"/>
      <feComposite operator="in" in2="blur"/>
      <feComposite in="SourceGraphic"/>
    </filter>
  </defs>
  <g transform="matrix(1, 0, 0, 1, 0, 0)" filter="url(#search-location-solid)">
    <path id="search-location-solid-2" data-name="search-location-solid" d="M33.585,29.437l-6.631-6.629a1.6,1.6,0,0,0-1.13-.465H24.74a13.829,13.829,0,1,0-2.394,2.393v1.084a1.6,1.6,0,0,0,.465,1.13l6.631,6.629a1.589,1.589,0,0,0,2.254,0L33.578,31.7a1.6,1.6,0,0,0,.007-2.26ZM13.833,23.405a9.575,9.575,0,1,1,9.576-9.575A9.57,9.57,0,0,1,13.833,23.405Zm0-15.957a4.91,4.91,0,0,0-4.91,4.91c0,2.192,3.209,6.188,4.439,7.638a.614.614,0,0,0,.943,0c1.23-1.45,4.439-5.446,4.439-7.638a4.91,4.91,0,0,0-4.91-4.91Zm0,6.384a1.6,1.6,0,1,1,1.6-1.6A1.6,1.6,0,0,1,13.835,13.832Z" transform="translate(9 8)" fill="#61dbfb" opacity="0.8"/>
  </g>
</svg>
