<svg xmlns="http://www.w3.org/2000/svg" xmlns:xlink="http://www.w3.org/1999/xlink" width="56.26" height="48.608" viewBox="0 0 56.26 48.608">
  <defs>
    <filter id="crown-solid" x="0" y="0" width="56.26" height="48.608" filterUnits="userSpaceOnUse">
      <feOffset dy="3" input="SourceAlpha"/>
      <feGaussianBlur stdDeviation="3" result="blur"/>
      <feFlood flood-opacity="0.161"/>
      <feComposite operator="in" in2="blur"/>
      <feComposite in="SourceGraphic"/>
    </filter>
  </defs>
  <g transform="matrix(1, 0, 0, 1, 0, 0)" filter="url(#crown-solid)">
    <path id="crown-solid-2" data-name="crown-solid" d="M31.565,26.782H6.7a.959.959,0,0,0-.957.957v1.913a.959.959,0,0,0,.957.957H31.565a.959.959,0,0,0,.957-.957V27.739A.959.959,0,0,0,31.565,26.782Zm3.826-19.13a2.87,2.87,0,0,0-2.87,2.87,2.811,2.811,0,0,0,.263,1.184L28.456,14.3a1.91,1.91,0,0,1-2.642-.693L20.941,5.081a2.87,2.87,0,1,0-3.623,0l-4.872,8.525A1.912,1.912,0,0,1,9.8,14.3L5.482,11.705A2.869,2.869,0,1,0,2.87,13.391a2.93,2.93,0,0,0,.46-.048L7.652,24.869H30.608L34.93,13.343a2.93,2.93,0,0,0,.46.048,2.87,2.87,0,0,0,0-5.739Z" transform="translate(9 6)" fill="gold"/>
  </g>
</svg>
