<svg xmlns="http://www.w3.org/2000/svg" xmlns:xlink="http://www.w3.org/1999/xlink" width="41.301" height="36.641" viewBox="0 0 41.301 36.641">
  <defs>
    <filter id="crown-solid" x="0" y="0" width="41.301" height="36.641" filterUnits="userSpaceOnUse">
      <feOffset dy="3" input="SourceAlpha"/>
      <feGaussianBlur stdDeviation="3" result="blur"/>
      <feFlood flood-opacity="0.161"/>
      <feComposite operator="in" in2="blur"/>
      <feComposite in="SourceGraphic"/>
    </filter>
  </defs>
  <g transform="matrix(1, 0, 0, 1, 0, 0)" filter="url(#crown-solid)">
    <path id="crown-solid-2" data-name="crown-solid" d="M19.223,16.311H4.078a.584.584,0,0,0-.583.583v1.165a.584.584,0,0,0,.583.583H19.223a.584.584,0,0,0,.583-.583V16.893A.584.584,0,0,0,19.223,16.311ZM21.554,4.66a1.748,1.748,0,0,0-1.748,1.748,1.712,1.712,0,0,0,.16.721L17.33,8.709a1.163,1.163,0,0,1-1.609-.422L12.754,3.095a1.748,1.748,0,1,0-2.206,0L7.58,8.286a1.164,1.164,0,0,1-1.609.422L3.339,7.129A1.747,1.747,0,1,0,1.748,8.155a1.784,1.784,0,0,0,.28-.029L4.66,15.146H18.641l2.632-7.019a1.784,1.784,0,0,0,.28.029,1.748,1.748,0,0,0,0-3.5Z" transform="translate(9 6)" fill="silver"/>
  </g>
</svg>
