<svg xmlns="http://www.w3.org/2000/svg" xmlns:xlink="http://www.w3.org/1999/xlink" width="409.875" height="360.909" viewBox="0 0 409.875 360.909">
  <defs>
    <filter id="react-brands" x="0" y="0" width="409.875" height="360.909" filterUnits="userSpaceOnUse">
      <feOffset dx="5" dy="5" input="SourceAlpha"/>
      <feGaussianBlur stdDeviation="3" result="blur"/>
      <feFlood flood-opacity="0.161"/>
      <feComposite operator="in" in2="blur"/>
      <feComposite in="SourceGraphic"/>
    </filter>
  </defs>
  <g transform="matrix(1, 0, 0, 1, 0, 0)" filter="url(#react-brands)">
    <path id="react-brands-2" data-name="react-brands" d="M320.082,143.136q-6.2-2.067-12.4-3.9c.689-2.832,1.3-5.664,1.913-8.5,9.414-45.617,3.215-82.278-17.68-94.371-20.129-11.557-52.964.459-86.182,29.391-3.291,2.832-6.506,5.817-9.567,8.8-2.067-1.99-4.21-3.98-6.353-5.893C154.99,37.743,120.088,24.732,99.193,36.9,79.14,48.535,73.17,83.054,81.59,126.221c.842,4.286,1.76,8.5,2.832,12.782-4.9,1.378-9.72,2.908-14.236,4.516C29.314,157.678,0,180.028,0,203.142c0,23.88,31.228,47.836,73.706,62.379,3.444,1.148,6.888,2.3,10.409,3.291-1.148,4.592-2.143,9.108-3.062,13.777-8.036,42.479-1.76,76.155,18.293,87.713,20.665,11.94,55.414-.306,89.243-29.926,2.679-2.373,5.358-4.822,8.036-7.424,3.368,3.291,6.888,6.429,10.409,9.491,32.758,28.166,65.134,39.57,85.11,28.013,20.665-11.94,27.4-48.142,18.675-92.228q-1.033-5.052-2.3-10.333c2.449-.689,4.822-1.454,7.195-2.22,44.163-14.619,76.155-38.269,76.155-62.532,0-23.191-30.156-45.693-71.793-60.006ZM216.526,78.155C245,53.357,271.557,43.637,283.65,50.6c12.935,7.424,17.91,37.427,9.8,76.844-.536,2.6-1.072,5.128-1.76,7.654a391.839,391.839,0,0,0-51.51-8.113,386.716,386.716,0,0,0-32.605-40.642C210.556,83.513,213.465,80.834,216.526,78.155Zm-88.555,164.71c3.9,6.659,7.883,13.318,12.093,19.823a346.542,346.542,0,0,1-35.514-5.74,357.531,357.531,0,0,1,12.476-34.059C120.547,229.624,124.145,236.283,127.972,242.865ZM104.781,150.79c11.021-2.449,22.732-4.439,34.9-5.97-4.057,6.353-8.036,12.858-11.787,19.441-3.75,6.506-7.424,13.165-10.868,19.9-4.822-11.4-8.878-22.579-12.246-33.371Zm20.971,52.735c5.052-10.562,10.562-20.895,16.379-31.075s12.093-20.053,18.675-29.773c11.481-.842,23.191-1.3,35.131-1.3s23.727.459,35.131,1.3q9.759,14.466,18.6,29.62t16.609,30.921q-7.692,15.843-16.532,31.227c-5.817,10.18-12.017,20.053-18.522,29.85-11.4.842-23.268,1.225-35.284,1.225s-23.65-.383-34.9-1.071q-9.988-14.581-18.828-29.85c-5.893-10.18-11.328-20.512-16.456-31.074ZM263.98,242.712c3.9-6.735,7.577-13.547,11.175-20.436a355.291,355.291,0,0,1,12.935,33.906,336.16,336.16,0,0,1-35.973,6.123C256.249,255.877,260.153,249.294,263.98,242.712ZM275,184.161c-3.6-6.735-7.271-13.471-11.1-20.053q-5.625-9.759-11.71-19.288a352.234,352.234,0,0,1,35.131,6.123A338.718,338.718,0,0,1,275,184.161ZM196.091,98.055a336.085,336.085,0,0,1,22.655,27.4c-15.155-.689-30.386-.689-45.54,0C180.706,115.583,188.437,106.4,196.091,98.055ZM107.306,51.137c12.858-7.5,41.407,3.215,71.487,29.85,1.913,1.684,3.827,3.521,5.817,5.358a388.866,388.866,0,0,0-32.835,40.642,403.474,403.474,0,0,0-51.434,7.96c-.995-3.9-1.837-7.883-2.679-11.863-7.195-37.044-2.449-64.981,9.644-71.946ZM88.555,252.892c-3.215-.918-6.353-1.913-9.491-2.985-16.3-5.128-34.825-13.241-48.219-23.88a34.344,34.344,0,0,1-14.389-22.885c0-14.006,24.186-31.916,59.087-44.086,4.363-1.531,8.8-2.908,13.241-4.21a406.985,406.985,0,0,0,18.752,48.678A418.376,418.376,0,0,0,88.555,252.892ZM177.8,327.9a140.086,140.086,0,0,1-43.167,27.018,33.876,33.876,0,0,1-27.018,1c-12.17-7.042-17.221-34.06-10.333-70.415.842-4.286,1.76-8.572,2.832-12.782a382.9,382.9,0,0,0,51.969,7.5,403.908,403.908,0,0,0,33.064,40.871c-2.449,2.373-4.9,4.669-7.348,6.812Zm18.752-18.6c-7.807-8.419-15.614-17.757-23.191-27.783,7.348.306,14.925.459,22.579.459,7.883,0,15.614-.153,23.268-.536A330.081,330.081,0,0,1,196.55,309.3Zm100.035,22.961a34.015,34.015,0,0,1-12.629,23.956c-12.17,7.042-38.116-2.143-66.129-26.176-3.215-2.755-6.429-5.74-9.72-8.8a378.626,378.626,0,0,0,32.3-41.024,377.311,377.311,0,0,0,52.2-8.036c.765,3.138,1.454,6.276,2.067,9.338a139.523,139.523,0,0,1,1.913,50.745Zm13.93-82.278c-2.143.689-4.286,1.378-6.506,1.99a388.821,388.821,0,0,0-19.517-48.831A386.882,386.882,0,0,0,303.244,155c3.98,1.148,7.807,2.373,11.481,3.6,35.667,12.246,60.695,30.462,60.695,44.392C375.419,217.99,348.707,237.355,310.515,249.983ZM195.938,238.5a35.054,35.054,0,1,0-35.054-35.054A35.049,35.049,0,0,0,195.938,238.5Z" transform="translate(4 -28.01)" fill="#61dbfb"/>
  </g>
</svg>
