<svg xmlns="http://www.w3.org/2000/svg" width="45.017" height="36.014" viewBox="0 0 45.017 36.014">
  <path id="crown-solid_1_" data-name="crown-solid (1)" d="M37.139,31.512H7.878a1.129,1.129,0,0,0-1.125,1.125v2.251a1.129,1.129,0,0,0,1.125,1.125H37.139a1.129,1.129,0,0,0,1.125-1.125V32.637A1.129,1.129,0,0,0,37.139,31.512ZM41.641,9a3.377,3.377,0,0,0-3.376,3.376,3.308,3.308,0,0,0,.309,1.393l-5.093,3.053a2.248,2.248,0,0,1-3.109-.816L24.64,5.979a3.376,3.376,0,1,0-4.263,0l-5.733,10.03a2.249,2.249,0,0,1-3.109.816L6.45,13.772a3.375,3.375,0,1,0-3.074,1.984,3.448,3.448,0,0,0,.542-.056L9,29.261h27.01L41.1,15.7a3.448,3.448,0,0,0,.542.056,3.376,3.376,0,0,0,0-6.753Z" fill="#61dbfb" opacity="0.8"/>
</svg>
